<mxfile host="app.diagrams.net" modified="2021-06-15T02:51:09.585Z" agent="5.0 (Macintosh; Intel Mac OS X 10_12_6) AppleWebKit/537.36 (KHTML, like Gecko) Chrome/91.0.4472.101 Safari/537.36" etag="RdpWc7PJR1QELNcyzCwd" version="14.7.7" type="github">
  <diagram id="oYhHKH-9wigqflHudt5P" name="第 1 页">
    <mxGraphModel dx="946" dy="563" grid="1" gridSize="10" guides="1" tooltips="1" connect="1" arrows="1" fold="1" page="1" pageScale="1" pageWidth="827" pageHeight="1169" math="0" shadow="0">
      <root>
        <mxCell id="0" />
        <mxCell id="1" parent="0" />
        <mxCell id="USFzf0C5t3BltQ2p_OEi-6" style="edgeStyle=orthogonalEdgeStyle;rounded=0;orthogonalLoop=1;jettySize=auto;html=1;" edge="1" parent="1" source="USFzf0C5t3BltQ2p_OEi-1" target="USFzf0C5t3BltQ2p_OEi-2">
          <mxGeometry relative="1" as="geometry" />
        </mxCell>
        <mxCell id="USFzf0C5t3BltQ2p_OEi-1" value="client接受到消息seqId=1" style="rounded=1;whiteSpace=wrap;html=1;fillColor=#d5e8d4;strokeColor=#82b366;" vertex="1" parent="1">
          <mxGeometry x="60" y="10" width="120" height="60" as="geometry" />
        </mxCell>
        <mxCell id="USFzf0C5t3BltQ2p_OEi-4" style="edgeStyle=orthogonalEdgeStyle;rounded=0;orthogonalLoop=1;jettySize=auto;html=1;exitX=1;exitY=0.5;exitDx=0;exitDy=0;" edge="1" parent="1" source="USFzf0C5t3BltQ2p_OEi-2" target="USFzf0C5t3BltQ2p_OEi-3">
          <mxGeometry relative="1" as="geometry" />
        </mxCell>
        <mxCell id="USFzf0C5t3BltQ2p_OEi-2" value="seqId=1的消息是否消费" style="rhombus;whiteSpace=wrap;html=1;fillColor=#f5f5f5;strokeColor=#666666;fontColor=#333333;" vertex="1" parent="1">
          <mxGeometry x="60" y="120" width="119" height="60" as="geometry" />
        </mxCell>
        <mxCell id="USFzf0C5t3BltQ2p_OEi-8" style="edgeStyle=orthogonalEdgeStyle;rounded=0;orthogonalLoop=1;jettySize=auto;html=1;entryX=1;entryY=0.5;entryDx=0;entryDy=0;" edge="1" parent="1" source="USFzf0C5t3BltQ2p_OEi-3" target="USFzf0C5t3BltQ2p_OEi-7">
          <mxGeometry relative="1" as="geometry">
            <Array as="points">
              <mxPoint x="356" y="280" />
            </Array>
          </mxGeometry>
        </mxCell>
        <mxCell id="USFzf0C5t3BltQ2p_OEi-9" value="seqId=1，已消费，直接ack" style="edgeLabel;html=1;align=center;verticalAlign=middle;resizable=0;points=[];" vertex="1" connectable="0" parent="USFzf0C5t3BltQ2p_OEi-8">
          <mxGeometry x="0.4436" y="2" relative="1" as="geometry">
            <mxPoint x="36" y="-2" as="offset" />
          </mxGeometry>
        </mxCell>
        <mxCell id="USFzf0C5t3BltQ2p_OEi-3" value="时间区间已消费的集合，&lt;br&gt;[1,2,3]" style="shape=cylinder3;whiteSpace=wrap;html=1;boundedLbl=1;backgroundOutline=1;size=15;fillColor=#dae8fc;strokeColor=#6c8ebf;" vertex="1" parent="1">
          <mxGeometry x="326" y="110" width="60" height="80" as="geometry" />
        </mxCell>
        <mxCell id="USFzf0C5t3BltQ2p_OEi-11" style="edgeStyle=orthogonalEdgeStyle;rounded=0;orthogonalLoop=1;jettySize=auto;html=1;entryX=0.5;entryY=0;entryDx=0;entryDy=0;" edge="1" parent="1" source="USFzf0C5t3BltQ2p_OEi-7" target="USFzf0C5t3BltQ2p_OEi-10">
          <mxGeometry relative="1" as="geometry" />
        </mxCell>
        <mxCell id="USFzf0C5t3BltQ2p_OEi-7" value="ack，seqId=1的消息" style="rounded=1;whiteSpace=wrap;html=1;fillColor=#ffe6cc;strokeColor=#d79b00;" vertex="1" parent="1">
          <mxGeometry x="60" y="250" width="120" height="60" as="geometry" />
        </mxCell>
        <mxCell id="USFzf0C5t3BltQ2p_OEi-10" value="结束" style="rounded=1;whiteSpace=wrap;html=1;fillColor=#f8cecc;strokeColor=#b85450;" vertex="1" parent="1">
          <mxGeometry x="60" y="380" width="120" height="60" as="geometry" />
        </mxCell>
        <mxCell id="USFzf0C5t3BltQ2p_OEi-14" style="edgeStyle=orthogonalEdgeStyle;rounded=0;orthogonalLoop=1;jettySize=auto;html=1;" edge="1" parent="1" source="USFzf0C5t3BltQ2p_OEi-12" target="USFzf0C5t3BltQ2p_OEi-13">
          <mxGeometry relative="1" as="geometry" />
        </mxCell>
        <mxCell id="USFzf0C5t3BltQ2p_OEi-12" value="client接受到消息seqId=4" style="rounded=1;whiteSpace=wrap;html=1;fillColor=#d5e8d4;strokeColor=#82b366;" vertex="1" parent="1">
          <mxGeometry x="550" y="10" width="120" height="60" as="geometry" />
        </mxCell>
        <mxCell id="USFzf0C5t3BltQ2p_OEi-15" style="edgeStyle=orthogonalEdgeStyle;rounded=0;orthogonalLoop=1;jettySize=auto;html=1;entryX=1;entryY=0.5;entryDx=0;entryDy=0;entryPerimeter=0;" edge="1" parent="1" source="USFzf0C5t3BltQ2p_OEi-13" target="USFzf0C5t3BltQ2p_OEi-3">
          <mxGeometry relative="1" as="geometry" />
        </mxCell>
        <mxCell id="USFzf0C5t3BltQ2p_OEi-17" style="edgeStyle=orthogonalEdgeStyle;rounded=0;orthogonalLoop=1;jettySize=auto;html=1;" edge="1" parent="1" source="USFzf0C5t3BltQ2p_OEi-13" target="USFzf0C5t3BltQ2p_OEi-16">
          <mxGeometry relative="1" as="geometry" />
        </mxCell>
        <mxCell id="USFzf0C5t3BltQ2p_OEi-13" value="seqId=4的消息是否消费" style="rhombus;whiteSpace=wrap;html=1;fillColor=#f5f5f5;strokeColor=#666666;fontColor=#333333;" vertex="1" parent="1">
          <mxGeometry x="550" y="120" width="119" height="60" as="geometry" />
        </mxCell>
        <mxCell id="USFzf0C5t3BltQ2p_OEi-19" style="edgeStyle=orthogonalEdgeStyle;rounded=0;orthogonalLoop=1;jettySize=auto;html=1;" edge="1" parent="1" source="USFzf0C5t3BltQ2p_OEi-16" target="USFzf0C5t3BltQ2p_OEi-18">
          <mxGeometry relative="1" as="geometry" />
        </mxCell>
        <mxCell id="USFzf0C5t3BltQ2p_OEi-16" value="未消费，处理seqId=4的消息" style="rounded=1;whiteSpace=wrap;html=1;" vertex="1" parent="1">
          <mxGeometry x="550" y="240" width="120" height="60" as="geometry" />
        </mxCell>
        <mxCell id="USFzf0C5t3BltQ2p_OEi-20" style="edgeStyle=orthogonalEdgeStyle;rounded=0;orthogonalLoop=1;jettySize=auto;html=1;entryX=1;entryY=0.5;entryDx=0;entryDy=0;entryPerimeter=0;" edge="1" parent="1" source="USFzf0C5t3BltQ2p_OEi-18" target="USFzf0C5t3BltQ2p_OEi-3">
          <mxGeometry relative="1" as="geometry">
            <mxPoint x="410" y="190" as="targetPoint" />
          </mxGeometry>
        </mxCell>
        <mxCell id="USFzf0C5t3BltQ2p_OEi-21" value="添加，seqId=4的消息" style="edgeLabel;html=1;align=center;verticalAlign=middle;resizable=0;points=[];" vertex="1" connectable="0" parent="USFzf0C5t3BltQ2p_OEi-20">
          <mxGeometry x="-0.2899" y="1" relative="1" as="geometry">
            <mxPoint as="offset" />
          </mxGeometry>
        </mxCell>
        <mxCell id="USFzf0C5t3BltQ2p_OEi-23" style="edgeStyle=orthogonalEdgeStyle;rounded=0;orthogonalLoop=1;jettySize=auto;html=1;" edge="1" parent="1" source="USFzf0C5t3BltQ2p_OEi-18" target="USFzf0C5t3BltQ2p_OEi-22">
          <mxGeometry relative="1" as="geometry" />
        </mxCell>
        <mxCell id="USFzf0C5t3BltQ2p_OEi-18" value="处理完成，seqId放倒已经消费的队列" style="rounded=1;whiteSpace=wrap;html=1;fillColor=#dae8fc;strokeColor=#6c8ebf;" vertex="1" parent="1">
          <mxGeometry x="550" y="370" width="120" height="60" as="geometry" />
        </mxCell>
        <mxCell id="USFzf0C5t3BltQ2p_OEi-25" style="edgeStyle=orthogonalEdgeStyle;rounded=0;orthogonalLoop=1;jettySize=auto;html=1;" edge="1" parent="1" source="USFzf0C5t3BltQ2p_OEi-22" target="USFzf0C5t3BltQ2p_OEi-24">
          <mxGeometry relative="1" as="geometry" />
        </mxCell>
        <mxCell id="USFzf0C5t3BltQ2p_OEi-22" value="ack，seqId=1的消息" style="rounded=1;whiteSpace=wrap;html=1;fillColor=#ffe6cc;strokeColor=#d79b00;" vertex="1" parent="1">
          <mxGeometry x="550" y="490" width="120" height="60" as="geometry" />
        </mxCell>
        <mxCell id="USFzf0C5t3BltQ2p_OEi-24" value="结束" style="rounded=1;whiteSpace=wrap;html=1;fillColor=#f8cecc;strokeColor=#b85450;" vertex="1" parent="1">
          <mxGeometry x="550" y="610" width="120" height="60" as="geometry" />
        </mxCell>
      </root>
    </mxGraphModel>
  </diagram>
</mxfile>
